<svg xmlns="http://www.w3.org/2000/svg" width="29.628" height="24.72" viewBox="0 0 29.628 24.72">
  <path id="bars-solid_2_" data-name="bars-solid (2)" d="M1.058,64.54H28.569a1.034,1.034,0,0,0,1.058-1.009V61.009A1.034,1.034,0,0,0,28.569,60H1.058A1.034,1.034,0,0,0,0,61.009v2.522A1.034,1.034,0,0,0,1.058,64.54Zm0,10.09H28.569a1.034,1.034,0,0,0,1.058-1.009V71.1a1.034,1.034,0,0,0-1.058-1.009H1.058A1.034,1.034,0,0,0,0,71.1v2.522A1.034,1.034,0,0,0,1.058,74.63Zm0,10.09H28.569a1.034,1.034,0,0,0,1.058-1.009V81.188a1.034,1.034,0,0,0-1.058-1.009H1.058A1.034,1.034,0,0,0,0,81.188v2.522A1.034,1.034,0,0,0,1.058,84.72Z" transform="translate(0 -60)" fill="#fff"/>
</svg>
