<?xml version="1.0" encoding="utf-8"?>
<!-- Generator: Adobe Illustrator 23.0.3, SVG Export Plug-In . SVG Version: 6.00 Build 0)  -->
<svg version="1.1" id="Capa_1" xmlns="http://www.w3.org/2000/svg" xmlns:xlink="http://www.w3.org/1999/xlink" x="0px" y="0px"
	 viewBox="0 0 231.1 41.7" style="enable-background:new 0 0 231.1 41.7;" xml:space="preserve">
<style type="text/css">
	.st0{fill:#FFFFFF;}
	.st1{fill:#97D700;}
</style>
<g id="Grupo_12243" transform="translate(-253.111 -200.008)">
	<g id="Componente_12" transform="translate(253.111 200.008)">
		<g id="Grupo_11914" transform="translate(54.925 6.56)">
			<path id="Trazado_18155" class="st0" d="M0,14.2C0,5.9,6.1,0,14.3,0c8.3,0,14.4,5.9,14.4,14.2s-6.1,14.2-14.4,14.2
				C6.1,28.4,0,22.5,0,14.2z M22.7,14.2c0-5.1-3.3-9-8.4-9S6,9.1,6,14.2c0,5.1,3.3,9,8.3,9S22.7,19.3,22.7,14.2z"/>
			<path id="Trazado_18156" class="st0" d="M38.2,27.9V5.6h-8V0.5h21.9v5.1h-8v22.3H38.2z"/>
			<path id="Trazado_18157" class="st0" d="M62.2,27.9V5.6h-8V0.5H76v5.1h-8v22.3H62.2z"/>
			<path id="Trazado_18158" class="st0" d="M100.5,27.9L82,2.6v25.3h-1.3V0.5H82l18.5,25.1V0.5h1.3v27.5L100.5,27.9z"/>
			<path id="Trazado_18159" class="st0" d="M109.1,27.9V0.5h16.8v1.2h-15.5v11.5h15.2v1.2h-15.2v12.3h15.5v1.2H109.1z"/>
			<path id="Trazado_18160" class="st0" d="M152,27.9l-10.4-13.1l-10.4,13.1h-1.7l11.4-14.1L130.1,0.5h1.8l9.7,12.3l9.7-12.3h1.8
				l-10.8,13.3l11.4,14.1L152,27.9z"/>
			<path id="Trazado_18161" class="st0" d="M165.6,27.9V1.7h-9.3V0.5h19.9v1.2h-9.3v26.2L165.6,27.9z"/>
		</g>
		<g id="group">
			<path id="path" class="st1" d="M17.7,10.5c1-0.6,1.3-2,0.7-3c-0.6-1-2-1.3-3-0.7c0,0,0,0,0,0c-7.8,4.9-10,15.2-5.1,23
				c1.3,2.1,3,3.8,5.1,5.1c0.3,0.2,0.8,0.3,1.2,0.3c0.7,0,1.4-0.4,1.8-1c0.6-1,0.4-2.4-0.7-3c0,0,0,0,0,0C12,27.6,10.3,20,14,14.3
				C14.9,12.8,16.2,11.5,17.7,10.5 M38,20.9c0-5.7-2.9-11-7.7-14c-1-0.7-2.4-0.4-3,0.7c0,0,0,0,0,0c-0.6,1-0.3,2.4,0.7,3
				c0,0,0,0,0,0c5.7,3.6,7.4,11.2,3.8,16.9c-1,1.5-2.3,2.8-3.8,3.8c-1,0.7-1.3,2-0.7,3c0.4,0.6,1.1,1,1.8,1c0.4,0,0.8-0.1,1.2-0.3
				C35.1,31.9,38,26.6,38,20.9 M34.4,0.3c-1-0.6-2.4-0.3-3,0.7c0,0,0,0,0,0c-0.6,1-0.3,2.4,0.7,3c9.3,5.9,12,18.3,6.1,27.6
				c-1.6,2.5-3.7,4.6-6.1,6.1c-1,0.6-1.3,2-0.7,3c0.4,0.6,1.1,1,1.9,1c0.4,0,0.8-0.1,1.2-0.3c11.3-7.2,14.7-22.3,7.5-33.6
				C40,4.8,37.4,2.3,34.4,0.3 M13.6,37.7L13.6,37.7c-9.3-5.9-12-18.3-6.1-27.6c1.6-2.5,3.7-4.5,6.1-6.1c1-0.7,1.3-2,0.7-3
				c-0.6-1-2-1.3-3-0.7c0,0,0,0,0,0C-0.1,7.6-3.4,22.6,3.8,33.9c1.9,3,4.5,5.5,7.5,7.5c0.3,0.2,0.8,0.3,1.2,0.3c0.7,0,1.4-0.4,1.8-1
				C14.9,39.7,14.6,38.4,13.6,37.7C13.6,37.7,13.6,37.7,13.6,37.7"/>
		</g>
	</g>
</g>
</svg>
