<svg id="Capa_1" data-name="Capa 1" xmlns="http://www.w3.org/2000/svg" viewBox="0 0 62 62"><defs><style>.cls-1{opacity:0.7;}.cls-2{fill:none;stroke:#fff;stroke-width:3px;}.cls-3{fill:#fff;}</style></defs><title>play</title><path class="cls-1" d="M31,2.5a28.1,28.1,0,0,1,5.56.55,27.74,27.74,0,0,1,5.35,1.62A28.33,28.33,0,0,1,46.83,7.3a28.71,28.71,0,0,1,7.87,7.87,28.33,28.33,0,0,1,2.63,4.92A27.74,27.74,0,0,1,59,25.44a28.38,28.38,0,0,1,0,11.12,27.74,27.74,0,0,1-1.62,5.35,28.33,28.33,0,0,1-2.63,4.92,28.71,28.71,0,0,1-7.87,7.87,28.33,28.33,0,0,1-4.92,2.63A27.74,27.74,0,0,1,36.56,59a28.38,28.38,0,0,1-11.12,0,27.74,27.74,0,0,1-5.35-1.62,28.33,28.33,0,0,1-4.92-2.63A28.71,28.71,0,0,1,7.3,46.83a28.33,28.33,0,0,1-2.63-4.92,27.74,27.74,0,0,1-1.62-5.35,28.38,28.38,0,0,1,0-11.12,27.74,27.74,0,0,1,1.62-5.35A28.33,28.33,0,0,1,7.3,15.17,28.71,28.71,0,0,1,15.17,7.3a28.33,28.33,0,0,1,4.92-2.63,27.74,27.74,0,0,1,5.35-1.62A28.1,28.1,0,0,1,31,2.5Z"/><path class="cls-2" d="M31,2.5a28.1,28.1,0,0,1,5.56.55,27.74,27.74,0,0,1,5.35,1.62A28.33,28.33,0,0,1,46.83,7.3a28.71,28.71,0,0,1,7.87,7.87,28.33,28.33,0,0,1,2.63,4.92A27.74,27.74,0,0,1,59,25.44a28.38,28.38,0,0,1,0,11.12,27.74,27.74,0,0,1-1.62,5.35,28.33,28.33,0,0,1-2.63,4.92,28.71,28.71,0,0,1-7.87,7.87,28.33,28.33,0,0,1-4.92,2.63A27.74,27.74,0,0,1,36.56,59a28.38,28.38,0,0,1-11.12,0,27.74,27.74,0,0,1-5.35-1.62,28.33,28.33,0,0,1-4.92-2.63A28.71,28.71,0,0,1,7.3,46.83a28.33,28.33,0,0,1-2.63-4.92,27.74,27.74,0,0,1-1.62-5.35,28.38,28.38,0,0,1,0-11.12,27.74,27.74,0,0,1,1.62-5.35A28.33,28.33,0,0,1,7.3,15.17,28.71,28.71,0,0,1,15.17,7.3a28.33,28.33,0,0,1,4.92-2.63,27.74,27.74,0,0,1,5.35-1.62A28.1,28.1,0,0,1,31,2.5Z"/><polygon class="cls-3" points="24.1 16.41 45.88 31 24.1 45.6 24.1 16.41"/></svg>